# xmcd
#
# Track frame offsets: 
#        150
#        19852
#        51151
#        111620
#        148971
#        169832
#        192284
#        215707
#
# Disc length: 3167 seconds
#
# Revision: 2
# Processed by: cddbd v1.5.2PL0 Copyright (c) Steve Scherf et al.
# Submitted via: ExactAudioCopy v1.0b3
#
DISCID=800c5d08
DTITLE=Miles Davis - Walkin'
DYEAR=2006
DGENRE=Jazz
TTITLE0=You Don't Know What Love Is
TTITLE1=Love Me Or Leave Me
TTITLE2=Walkin'
TTITLE3=Blue 'N' Boogie
TTITLE4=But Not For Me
TTITLE5=Airegin
TTITLE6=Oleo
TTITLE7=Doxy
EXTD=
EXTT0=
EXTT1=
EXTT2=
EXTT3=
EXTT4=
EXTT5=
EXTT6=
EXTT7=
PLAYORDER=
